<?xml version="1.0" encoding="utf-8"?>
<svg version="1.0" id="Capa_1" x="0px" y="0px" width="1200px" height="1200px" viewBox="0 0 1200 1200" enable-background="new 0 0 1200 1200" xmlns="http://www.w3.org/2000/svg">
  <g style="" transform="matrix(1.178462, 0, 0, 1.178462, -108.643341, -108.63868)">
    <path d="M1054.469,562.251h-61.386c17.481-42.627,38.039-85.545,38.272-86.068l0.987-2.73 c0.581-2.323,13.474-57.378-24.566-109.588l-2.962-4.007c-19.397-26.424-33.393-45.473-25.437-98.67l2.904-17.945l6.563-53.604 c0.697-4.936,0.29-14.519-10.628-23.23c-17.713-14.054-56.333-20.268-76.543-12.312c-13.183,5.169-16.435,14.751-17.248,20.384 l-6.563,53.778l-2.381,17.248c-7.956,53.429-26.831,67.6-53.023,87.229l-4.007,2.962c-51.629,38.852-55.288,95.302-55.404,97.683 l-0.116,1.858l0.407,1.858c0.174,0.813,15.797,73.756,20.733,125.152h-53.72l-0.058-151.809 c0.174-2.091,4.356-51.919-35.658-92.456c-21.081-21.43-39.201-44.486-30.141-90.83c6.388-32.696-8.073-65.219-16.552-80.667 l9.873-11.905v-5.111c0-6.388-2.788-17.945-21.72-23.985c-10.512-3.368-22.591-4.065-30.954-4.065 c-13.299,0-56.74,2.033-56.74,28.05v2.904l9.466,22.069c-7.085,13.59-21.662,45.183-18.875,71.491 c5.111,48.145-7.259,71.607-27.412,91.991c-39.956,40.595-35.833,90.423-35.716,91.178v153.145h-43.905l-23.811-159.359 c-0.116-2.091-3.368-51.977-48.841-86.242l-3.543-2.613c-22.359-16.784-38.562-28.863-45.357-74.395l-15.274-104.013 c-1.858-12.486-9.524-32.058-38.969-34.032l-17.539,0.697c-1.22,0.174-2.497,0.348-3.891,0.581l-13.357,5.924 c-21.256,11.092-22.243,29.793-20.559,40.885l13.241,88.913l2.439,14.867c6.795,45.647-5.169,61.966-21.778,84.558l-2.613,3.543 c-33.51,45.996-22.127,94.663-21.836,95.418l18.642,125.269h-43.382c-25.089,0-45.531,20.384-45.531,45.531 c0,25.089,20.443,45.531,45.531,45.531h908.938c25.089,0,45.531-20.443,45.531-45.531 C1100,582.635,1079.557,562.251,1054.469,562.251z" style="fill: rgb(255, 198, 27);"/>
    <path d="M974.557,675.15l-739.474,0.058c-30.838,0-95.069,0-95.069,54.823v2.381l0.813,2.265 c0.29,0.871,31.245,90.017,67.309,177.943c76.137,185.957,100.412,185.957,113.421,185.957h579.128 c45.647,0,111.505-202.915,158.778-373.134l0.523-3.775c0-12.951-3.891-23.462-11.615-31.128 C1032.633,674.917,1005.744,675.033,974.557,675.15z M598.519,785.202l-27.76,49.945c-4.762,8.595-13.706,13.415-22.882,13.415 c-4.298,0-8.653-1.045-12.66-3.252l-22.011-12.254c-12.312-6.853-17.016-22.533-10.454-35.019l12.254-23.23 c12.138-17.132,25.437-25.495,39.607-25.089c5.808,0.116,11.209,1.626,16.145,3.949l0.174-10.86l73.93-0.29 c1.22,0.058,19.804,1.278,28.805,15.39l12.486,20.094l34.264-18.12l-44.137,79.389l-90.714,0.523l32.755-21.43L598.519,785.202z M526.448,846.414l44.486,78.983l-34.613-18.12l-19.339,33.393h57.088c14.403,0,26.134,11.731,26.134,26.134v25.205 c0,14.112-11.499,25.844-25.553,26.134l-26.715,0.581l-0.465-0.058c-19.978-2.207-33.451-9.757-40.188-22.417 c-2.73-5.111-4.065-10.628-4.472-16.029l-9.524,5.111l-36.123-64.464c-0.581-1.103-8.537-17.945-0.581-32.638l11.499-20.733 l-32.464-21.081H526.448z M743.069,914.246c-2.846,5.111-6.795,9.118-11.151,12.312l9.466,5.343l-34.845,65.219 c-0.639,1.045-10.512,16.842-27.237,18.061l-23.637,1.452l-0.174,38.794l-49.016-76.601l42.627-80.028l3.31,38.969l38.562-1.742 l-30.78-48.086c-3.717-5.866-4.995-12.893-3.484-19.688c1.51-6.795,5.575-12.66,11.441-16.435l21.198-13.532 c11.905-7.608,27.934-4.298,35.832,7.434l14.635,21.778C749.109,886.312,750.038,901.76,743.069,914.246z" style="fill: rgb(255, 198, 27);"/>
  </g>
</svg>