<?xml version="1.0" encoding="utf-8"?>
<svg version="1.1" id="Capa_1" x="0px" y="0px" viewBox="0 0 297 297" style="enable-background:new 0 0 297 297;" xmlns="http://www.w3.org/2000/svg">
  <g>
    <path d="M164.047,185.991c2.153,0,4.334-0.54,6.342-1.673c6.205-3.508,8.395-11.383,4.887-17.59l-15.538-27.491 c-2.289-4.052-6.582-6.558-11.237-6.558c-4.655,0-8.948,2.506-11.238,6.559l-15.536,27.49c-3.508,6.209-1.317,14.082,4.889,17.59 c6.205,3.506,14.082,1.318,17.591-4.889l4.296-7.602l4.297,7.604C155.171,183.632,159.545,185.991,164.047,185.991z" style="fill: rgb(255, 198, 27);"/>
    <path d="M192.748,194.232c-3.509-6.205-11.383-8.393-17.591-4.886c-6.205,3.509-8.395,11.386-4.886,17.591l4.649,8.223 l-12.482,0.001c-7.129,0-12.909,5.78-12.909,12.911c0,7.129,5.782,12.907,12.911,12.907l34.607-0.002 c4.59,0,8.835-2.438,11.147-6.404c2.314-3.964,2.348-8.86,0.089-12.856L192.748,194.232z" style="fill: rgb(255, 198, 27);"/>
    <path d="M132.159,215.161H122.08l4.648-8.222c3.51-6.206,1.321-14.082-4.885-17.591c-6.207-3.511-14.083-1.321-17.59,4.885 l-15.537,27.485c-2.26,3.996-2.227,8.893,0.088,12.856c2.313,3.968,6.559,6.404,11.148,6.404h32.206 c7.131,0,12.91-5.779,12.91-12.909C145.069,220.941,139.29,215.161,132.159,215.161z" style="fill: rgb(255, 198, 27);"/>
    <path d="M257.264,93.246L174.51,4.125C172.068,1.494,168.642,0,165.051,0H49.195c-7.129,0-12.908,5.779-12.908,12.908V284.09 c0,7.131,5.779,12.91,12.908,12.91h198.609c7.129,0,12.908-5.779,12.908-12.91V102.03C260.713,98.771,259.48,95.634,257.264,93.246 z M177.96,45.782l40.242,43.34H177.96V45.782z M62.106,271.182V25.818h90.035v76.212c0,7.13,5.78,12.909,12.91,12.909h69.844 v156.242H62.106z" style="fill: rgb(255, 198, 27);"/>
  </g>
  <g/>
  <g/>
  <g/>
  <g/>
  <g/>
  <g/>
  <g/>
  <g/>
  <g/>
  <g/>
  <g/>
  <g/>
  <g/>
  <g/>
  <g/>
</svg>